<?xml version="1.0" encoding="UTF-8"?>
<svg xmlns="http://www.w3.org/2000/svg" xmlns:xlink="http://www.w3.org/1999/xlink" width="50pt" height="50pt" viewBox="0 0 50 50" version="1.1">
<g id="surface1">
<path style=" stroke:none;fill-rule:nonzero;fill:rgb(91.764706%,0%,0%);fill-opacity:1;" d="M 48.929688 45.902344 L 26.6875 1.910156 C 26.335938 1.21875 25.691406 0.792969 24.996094 0.792969 C 24.296875 0.792969 23.652344 1.21875 23.304688 1.910156 L 1.058594 45.902344 C 0.710938 46.59375 0.710938 47.441406 1.058594 48.132812 C 1.40625 48.820312 2.050781 49.246094 2.75 49.246094 L 47.242188 49.246094 C 47.9375 49.246094 48.582031 48.820312 48.929688 48.132812 C 49.28125 47.441406 49.28125 46.59375 48.929688 45.902344 Z M 48.929688 45.902344 "/>
<path style=" stroke:none;fill-rule:nonzero;fill:rgb(100%,100%,100%);fill-opacity:1;" d="M 7.480469 43.898438 L 42.507812 43.898438 L 24.996094 9.261719 Z M 7.480469 43.898438 "/>
<path style=" stroke:none;fill-rule:nonzero;fill:rgb(0%,0%,0%);fill-opacity:1;" d="M 23.238281 31.214844 C 23.335938 32.257812 23.492188 33.035156 23.71875 33.546875 C 23.941406 34.058594 24.339844 34.3125 24.914062 34.3125 L 25.074219 34.3125 C 25.648438 34.3125 26.050781 34.058594 26.273438 33.546875 C 26.496094 33.035156 26.65625 32.257812 26.75 31.214844 L 27.261719 23.144531 C 27.359375 21.574219 27.40625 20.445312 27.40625 19.761719 C 27.40625 18.828125 27.175781 18.101562 26.710938 17.578125 C 26.273438 17.082031 25.648438 16.796875 24.996094 16.796875 C 24.34375 16.796875 23.71875 17.082031 23.277344 17.578125 C 22.816406 18.101562 22.582031 18.828125 22.582031 19.761719 C 22.582031 20.445312 22.632812 21.574219 22.726562 23.144531 Z M 23.238281 31.214844 "/>
<path style=" stroke:none;fill-rule:nonzero;fill:rgb(0%,0%,0%);fill-opacity:1;" d="M 27.441406 39.164062 C 27.441406 40.707031 26.347656 41.957031 24.996094 41.957031 C 23.644531 41.957031 22.546875 40.707031 22.546875 39.164062 C 22.546875 37.617188 23.644531 36.367188 24.996094 36.367188 C 26.347656 36.367188 27.441406 37.617188 27.441406 39.164062 Z M 27.441406 39.164062 "/>
</g>
</svg>
